{
  "accessors": [
    {
      "bufferView": 2,
      "componentType": 5126,
      "count": 15945,
      "max": [
        47,
        28.349998474121094,
        82
      ],
      "min": [
        -46.999996185302734,
        -30.846260070800781,
        0
      ],
      "type": "VEC3"
    },
    {
      "bufferView": 2,
      "byteOffset": 191340,
      "componentType": 5126,
      "count": 15945,
      "max": [
        1,
        1,
        1
      ],
      "min": [
        -1,
        -1,
        -1
      ],
      "type": "VEC3"
    },
    {
      "bufferView": 3,
      "componentType": 5126,
      "count": 15945,
      "max": [
        1,
        1,
        1,
        1
      ],
      "min": [
        -1,
        -1,
        -1,
        -1
      ],
      "type": "VEC4"
    },
    {
      "bufferView": 1,
      "componentType": 5126,
      "count": 15945,
      "max": [
        0.99625802040100098,
        0.99699902534484863
      ],
      "min": [
        0.0029909999575465918,
        0.0029909999575465918
      ],
      "type": "VEC2"
    },
    {
      "bufferView": 0,
      "componentType": 5125,
      "count": 74202,
      "max": [
        15944
      ],
      "min": [
        0
      ],
      "type": "SCALAR"
    },
    {
      "bufferView": 2,
      "byteOffset": 382680,
      "componentType": 5126,
      "count": 564,
      "max": [
        50.000007629394531,
        33.650001525878906,
        86
      ],
      "min": [
        -50,
        -31.350006103515625,
        82
      ],
      "type": "VEC3"
    },
    {
      "bufferView": 2,
      "byteOffset": 389448,
      "componentType": 5126,
      "count": 564,
      "max": [
        1,
        1,
        1
      ],
      "min": [
        -1,
        -1,
        -1
      ],
      "type": "VEC3"
    },
    {
      "bufferView": 3,
      "byteOffset": 255120,
      "componentType": 5126,
      "count": 564,
      "max": [
        1,
        1,
        0.99156570434570312,
        1
      ],
      "min": [
        -1,
        -1,
        -0.99577039480209351,
        1
      ],
      "type": "VEC4"
    },
    {
      "bufferView": 1,
      "byteOffset": 127560,
      "componentType": 5126,
      "count": 564,
      "max": [
        0.89434200525283813,
        0.82458502054214478
      ],
      "min": [
        0.38121700286865234,
        0.53519099950790405
      ],
      "type": "VEC2"
    },
    {
      "bufferView": 0,
      "byteOffset": 296808,
      "componentType": 5125,
      "count": 1302,
      "max": [
        563
      ],
      "min": [
        0
      ],
      "type": "SCALAR"
    },
    {
      "bufferView": 2,
      "byteOffset": 396216,
      "componentType": 5126,
      "count": 1706,
      "max": [
        43.663238525390625,
        33.420001983642578,
        84.36383056640625
      ],
      "min": [
        -43.663234710693359,
        33.203620910644531,
        83.636184692382812
      ],
      "type": "VEC3"
    },
    {
      "bufferView": 2,
      "byteOffset": 416688,
      "componentType": 5126,
      "count": 1706,
      "max": [
        0.97361099720001221,
        1,
        0.9751887321472168
      ],
      "min": [
        -0.97361099720001221,
        -0.86211222410202026,
        -0.97507661581039429
      ],
      "type": "VEC3"
    },
    {
      "bufferView": 0,
      "byteOffset": 302016,
      "componentType": 5125,
      "count": 8952,
      "max": [
        1705
      ],
      "min": [
        0
      ],
      "type": "SCALAR"
    }
  ],
  "asset": {
    "extras": {
      "author": "Interiors3D (https://sketchfab.com/Interiors3D)",
      "license": "CC-BY-4.0 (http://creativecommons.org/licenses/by/4.0/)",
      "source": "https://sketchfab.com/3d-models/bme139-8d51a995624d46e3a46473ba9b97249e",
      "title": "BME139"
    },
    "generator": "Sketchfab-9.75.0",
    "version": "2.0"
  },
  "bufferViews": [
    {
      "buffer": 0,
      "byteLength": 337824,
      "byteOffset": 0,
      "name": "floatBufferViews",
      "target": 34963
    },
    {
      "buffer": 0,
      "byteLength": 132072,
      "byteOffset": 337824,
      "byteStride": 8,
      "name": "floatBufferViews",
      "target": 34962
    },
    {
      "buffer": 0,
      "byteLength": 437160,
      "byteOffset": 469896,
      "byteStride": 12,
      "name": "floatBufferViews",
      "target": 34962
    },
    {
      "buffer": 0,
      "byteLength": 264144,
      "byteOffset": 907056,
      "byteStride": 16,
      "name": "floatBufferViews",
      "target": 34962
    }
  ],
  "buffers": [
    {
      "byteLength": 1171200,
      "uri": "scene.bin"
    }
  ],
  "images": [
    {
      "uri": "textures/Brocante_baseColor.jpeg"
    },
    {
      "uri": "textures/Brocante_metallicRoughness.png"
    },
    {
      "uri": "textures/Brocante_normal.png"
    },
    {
      "uri": "textures/Brocante_top_baseColor.jpeg"
    },
    {
      "uri": "textures/Brocante_top_metallicRoughness.png"
    },
    {
      "uri": "textures/Brocante_top_normal.png"
    }
  ],
  "materials": [
    {
      "doubleSided": true,
      "name": "Brocante",
      "normalTexture": {
        "index": 2,
        "scale": 0.5,
        "texCoord": 0
      },
      "pbrMetallicRoughness": {
        "baseColorFactor": [
          1,
          1,
          1,
          1
        ],
        "baseColorTexture": {
          "index": 0,
          "texCoord": 0
        },
        "metallicFactor": 0,
        "metallicRoughnessTexture": {
          "index": 1,
          "texCoord": 0
        },
        "roughnessFactor": 1
      }
    },
    {
      "doubleSided": true,
      "name": "Brocante_top",
      "normalTexture": {
        "index": 5,
        "scale": 0.59999999999999998,
        "texCoord": 0
      },
      "pbrMetallicRoughness": {
        "baseColorFactor": [
          1,
          1,
          1,
          1
        ],
        "baseColorTexture": {
          "index": 3,
          "texCoord": 0
        },
        "metallicFactor": 0,
        "metallicRoughnessTexture": {
          "index": 4,
          "texCoord": 0
        },
        "roughnessFactor": 1
      }
    },
    {
      "doubleSided": true,
      "name": "Metal",
      "pbrMetallicRoughness": {
        "baseColorFactor": [
          0.44123800000000002,
          0.30147899999999994,
          0.17923600000000006,
          1
        ],
        "metallicFactor": 1,
        "roughnessFactor": 0.2448425903338898
      }
    }
  ],
  "meshes": [
    {
      "primitives": [
        {
          "attributes": {
            "NORMAL": 1,
            "POSITION": 0,
            "TANGENT": 2,
            "TEXCOORD_0": 3
          },
          "indices": 4,
          "material": 0,
          "mode": 4
        }
      ]
    },
    {
      "primitives": [
        {
          "attributes": {
            "NORMAL": 6,
            "POSITION": 5,
            "TANGENT": 7,
            "TEXCOORD_0": 8
          },
          "indices": 9,
          "material": 1,
          "mode": 4
        }
      ]
    },
    {
      "primitives": [
        {
          "attributes": {
            "NORMAL": 11,
            "POSITION": 10
          },
          "indices": 12,
          "material": 2,
          "mode": 4
        }
      ]
    }
  ],
  "nodes": [
    {
      "children": [
        1
      ],
      "name": "RootNode (gltf orientation matrix)",
      "rotation": [
        -0.70710678118654746,
        -0,
        -0,
        0.70710678118654757
      ]
    },
    {
      "children": [
        2
      ],
      "name": "RootNode (model correction matrix)"
    },
    {
      "children": [
        3,
        4,
        5
      ],
      "name": "W48 - BNE139 - Sketchfab - mesh.obj.cleaner.materialmerger.gles"
    },
    {
      "mesh": 0,
      "name": ""
    },
    {
      "mesh": 1,
      "name": ""
    },
    {
      "mesh": 2,
      "name": ""
    }
  ],
  "samplers": [
    {
      "magFilter": 9729,
      "minFilter": 9987,
      "wrapS": 10497,
      "wrapT": 10497
    }
  ],
  "scene": 0,
  "scenes": [
    {
      "name": "OSG_Scene",
      "nodes": [
        0
      ]
    }
  ],
  "textures": [
    {
      "sampler": 0,
      "source": 0
    },
    {
      "sampler": 0,
      "source": 1
    },
    {
      "sampler": 0,
      "source": 2
    },
    {
      "sampler": 0,
      "source": 3
    },
    {
      "sampler": 0,
      "source": 4
    },
    {
      "sampler": 0,
      "source": 5
    }
  ]
}

